# xmcd CD database file
#
# Track frame offsets:
#	150
#	11382
#	28527
#	38736
#	57453
#	72197
#	82827
#	99110
#	110068
#	126198
#	138762
#	158162
#	173495
#	186193
#	199993
#	213245
#	230739
#	242623
#	252970
#	274976
#
# Disc length: 3866 seconds
#
# Revision: 0
# Processed by: cddbd v1.5.2PL0 Copyright (c) Steve Scherf et al.
# Submitted via: CDex 1.70beta2
#
DISCID=0c0f1814
DTITLE=Delova Koule - Rychlejsi kone
DYEAR=1997
DGENRE=Country
TTITLE0=Sedim za volantem rad
TTITLE1=Zatceni
TTITLE2=V Texasu je ode vseho kousek
TTITLE3=Sedim na Jeepu
TTITLE4=Evangelina
TTITLE5=Era parnich lokomotiv
TTITLE6=Kalifornsky blues
TTITLE7=Kovbojsky boty
TTITLE8=Dlouha cerna limuzina
TTITLE9=Medley´s song
TTITLE10=Mobile Bay
TTITLE11=Kalny vody
TTITLE12=Jsem volnej jak ptak
TTITLE13=Ridicsky blues
TTITLE14=Poslouchej Betty
TTITLE15=Tennessee Waltz
TTITLE16=Stvoreni U.S.A.
TTITLE17=Vlak 97
TTITLE18=Bobby McGee
TTITLE19=Rychlejsi kone
EXTD=YEAR: 1997
EXTT0=
EXTT1=
EXTT2=
EXTT3=
EXTT4=
EXTT5=
EXTT6=
EXTT7=
EXTT8=
EXTT9=
EXTT10=
EXTT11=
EXTT12=
EXTT13=
EXTT14=
EXTT15=
EXTT16=
EXTT17=
EXTT18=
EXTT19=
PLAYORDER=
